<?xml version="1.0" encoding="utf-8"?>
<svg version="1.1" id="Layer_1" xmlns="http://www.w3.org/2000/svg" xmlns:xlink="http://www.w3.org/1999/xlink" x="0px" y="0px" viewBox="0 0 122.88 100.06" style="enable-background:new 0 0 122.88 100.06" xml:space="preserve">
    <style type="text/css">
        .st0{fill-rule:evenodd;clip-rule:evenodd; fill: #3395ff;}
    </style>
    <g>
        <path class="st0" d="M6.38,0h110.11c3.51,0,6.39,2.87,6.39,6.38v87.29c0,3.51-2.87,6.38-6.39,6.38H6.38 c-3.51,0-6.38-2.87-6.38-6.38V6.38C0,2.87,2.87,0,6.38,0L6.38,0z M26.1,31.43h30.77v7.95H37.63v5.92h17.83v7.59H37.63v7.33h19.8 v8.42H26.1V31.43L26.1,31.43z M61.23,31.43h10.73l13.95,20.55V31.43h10.86v37.21H85.91L72.04,48.2v20.43H61.23V31.43L61.23,31.43z"/>
    </g>
</svg>